<svg xmlns="http://www.w3.org/2000/svg" width="1189mm" height="841mm" version="1.1" viewBox="0 0 1189 841">
 <defs>
  <clipPath id="clipPath932">
   <rect x="-32.591" y="-7.8667" width="1239.6" height="869.84" fill="#f60" stroke="#ee00f8" stroke-width="1.865" />
  </clipPath>
 </defs>
 <rect x="-32.591" y="-7.8667" width="1239.6" height="869.84" fill="#ffffff" stroke="#ee00f8" stroke-width="1.865" />
 <path clip-path="url(#clipPath932)" d="m30.838 101.33c13.216-63.145 77.829-69.019 98.388-71.955 20.559-2.937 135.1-8.8109 158.6 14.685 23.496 23.496 33.775 29.37 60.208 67.55s239.36 69.019 254.05 52.865c14.685-16.153 27.901-63.145 48.46-77.829 20.559-14.685 192.37-57.271 209.99-52.865 17.622 4.4054 193.84 14.685 205.59 17.622 11.748 2.937 105.73 52.865 105.73 52.865s-1.4685 33.775-19.09 45.523c-17.622 11.748-174.75 41.117-198.24 14.685-23.496-26.433-105.73-61.676-105.73-61.676l-221.74-51.397-116.01-1.4685s-98.388 14.685-123.35 27.901c-24.964 13.216-218.8 35.244-218.8 35.244l-107.2 45.523s-17.622 26.433-7.3424 51.397c10.279 24.964-20.559 22.027 19.09 29.37s121.88-30.838 133.63-36.712 165.94-13.216 208.52 14.685c42.586 27.901 73.424 10.279 77.829 41.117 4.4054 30.838-42.586 39.649 22.027 58.739s143.91 69.019 183.56 11.748c39.649-57.271 57.271-91.046 67.55-118.95 10.279-27.901-38.18-52.865 45.523-58.739s61.676-39.649 126.29-5.8739c64.613 33.775 58.739-19.09 82.235 39.649s26.433 42.586 38.18 85.172c11.748 42.586-13.216 29.37 20.559 67.55s55.802 101.33 69.018 61.676c13.216-39.649 26.433-57.271 17.622-89.577s-7.3424-57.271-19.09-60.208c-11.748-2.937-85.172-27.901-132.16-8.8109-46.991 19.09-73.424 24.964-83.703 33.775-10.279 8.8109-35.244-17.622-26.433 27.901 8.8109 45.523-22.027 58.739 41.117 93.983 63.145 35.244 58.739 33.775 98.388 41.117 39.649 7.3424-11.748-61.676 48.46 11.748s69.019 71.956 58.739 85.172c-10.279 13.216-108.67 36.712-123.35 29.37s-99.857-17.622-99.857-41.117c0-23.496-7.3424-101.33 26.433-127.76 33.775-26.433 139.51-20.559 58.739-57.271-80.766-36.712-182.09-44.054-182.09-44.054s-73.424 48.46-73.424 101.33c0 52.865 16.153 83.703-10.279 86.64-26.433 2.937-71.956 24.964-99.857-49.928s-49.928-107.2-49.928-140.97c0-33.775 35.244-49.928 4.4054-63.145-30.838-13.216-101.33-29.37-129.23-32.307-27.901-2.937-92.514-52.865-114.54-11.748s-22.027 26.433-32.307 69.019 11.748 48.46-20.559 54.334c-32.307 5.8739-49.928 11.748-92.514 5.8739s5.8739-7.3424-61.676-11.748c-67.55-4.4054-118.95-24.964-120.42-4.4054-1.4685 20.559-60.208-20.559 19.09 49.928s82.235 101.33 96.92 71.956c14.685-29.37 35.244-73.424 48.46-93.983s17.622-41.117 33.775-49.928c16.153-8.8109 30.838-49.928 93.983-4.4054 63.145 45.523 86.64 2.937 86.64 64.613s-63.145 48.46 4.4054 88.109 64.613 49.928 95.451 38.18 46.991-16.153 64.613-26.433c17.622-10.279 22.027-36.712 89.577-26.433s23.496-10.279 92.514 14.685c69.019 24.964 44.054-2.937 74.892 27.901s-8.8109 23.496 46.991 38.18c55.802 14.685 8.8109 0 91.046 17.622 82.235 17.622 23.496-60.208 88.109 20.559 64.613 80.766 73.424 76.361 74.892 89.577 1.4684 13.216 20.559 20.559-4.4055 35.244-24.964 14.685-63.145 32.307-79.298 29.37s-48.46 16.153-61.676-27.901 8.8109-76.361-35.244-88.109c-44.054-11.748-67.55-45.523-88.109-19.09s-45.523 19.09-38.18 64.613-23.496 54.334 26.433 77.829c49.928 23.496 27.901 45.523 77.829 32.307s33.775 16.153 64.613-20.559 48.46-70.487 66.082-63.145c17.622 7.3424 20.559-13.216 39.649 24.964s10.279 22.027 27.901 58.739 27.901 33.775 17.622 48.46-7.3424 26.433-41.117 26.433h-113.07c-57.271 0-74.892-1.4685-105.73-8.8109s-63.145 11.748-60.208-27.901 44.054-52.865 48.46-80.766c4.4054-27.901 38.18-39.649 7.3424-58.739-30.838-19.09-108.67-44.054-108.67-61.676s7.3424-63.145-24.964-73.424-88.109-49.928-93.983-27.901c-5.8739 22.027-13.216 22.027-5.8739 83.703 7.3424 61.676-5.8739 49.928 14.685 98.388 20.559 48.46 24.964 41.117 42.586 70.487s51.397 13.216 23.496 39.649-4.4054 24.964-38.18 30.838-39.649 19.09-58.739 5.8739c-19.09-13.216-57.271-143.91-41.117-148.32 16.153-4.4054-13.216-4.4054 29.37-7.3424s44.054-16.153 77.829-13.216 38.18 36.712 39.649 2.937c1.4685-33.775-38.18-108.67-67.55-113.07-29.37-4.4054-129.23-57.271-138.04-76.361-8.8109-19.09-48.46-67.55-48.46-67.55s-16.153-91.046-44.054-7.3424c-27.901 83.703-38.18 104.26-27.901 140.97 10.279 36.712-10.279 7.3424 14.685 70.487 24.964 63.145 0 80.766 67.55 88.109 67.55 7.3424 107.2-33.775 101.33-66.082-5.8739-32.307-22.027-66.082-51.397-69.019s-70.487-26.433-88.109-4.4054c-17.622 22.027-23.496-4.4054-55.802 58.739-32.307 63.145-133.63 49.928-20.559 114.54 113.07 64.613 139.51 66.082 140.97 73.424 1.4685 7.3424 1.4685 11.748 1.4685 11.748l38.18-52.865-83.703 10.279s69.019-66.082-13.216-36.712-91.046 10.279-110.14 42.586c-19.09 32.307-11.748 35.244-24.964 36.712-13.216 1.4685-33.775 26.433-44.054 4.4054-10.279-22.027-22.027-51.397-11.748-91.046s32.307-73.424 42.586-111.6c10.279-38.18 14.685-39.649 17.622-79.298s-2.937-95.451-11.748-108.67c-8.8109-13.216 0-41.117-35.244-32.307-35.244 8.8109-44.054 14.685-71.956 20.559-27.901 5.8739-91.046 2.937-91.046 2.937s19.09-55.802-22.027-11.748-46.991 44.054-45.523 63.145c1.4685 19.09-2.937-64.613 1.4685 26.433 4.4054 91.046-4.4054 114.54 52.865 142.44 57.271 27.901 95.451 5.8739 58.739 29.37-36.712 23.496-55.802 11.748-74.892 44.054-19.09 32.307-27.901 27.901-24.964 64.613s-16.153 57.271 32.307 63.145c48.46 5.8739 48.46 11.748 71.955-1.4685 23.496-13.216 67.55-1.4685 41.117-45.523-26.433-44.054-82.235-49.928-80.766-79.298 1.4685-29.37 46.991-79.298 77.829-89.577s54.334-2.937 74.892-1.4685c20.559 1.4685 58.739-27.901 38.18-69.019-20.559-41.117-4.4054-77.829-61.676-67.55s-48.46 7.3424-89.577 33.775c-41.117 26.433-107.2 27.901-116.01 54.334-8.8109 26.433-29.37 67.55 16.153 99.857s26.433 16.153 89.577 49.928c63.145 33.775 77.829 39.649 130.69 32.307 52.865-7.3424 73.424-83.703 101.33-10.279 27.901 73.424 0 83.703 46.991 93.983 46.991 10.279-2.937 11.748 80.766 10.279 83.703-1.4685 22.027-1.4685 116.01-1.4685s77.829 10.279 116.01 0c38.18-10.279 54.334 17.622 48.46-27.901-5.8739-45.523-20.559-58.739-20.559-111.6 0-52.865-10.279-70.487 0-108.67 10.279-38.18 20.559-152.72-10.279-211.46-30.838-58.739-63.145-96.92-74.892-116.01-11.748-19.09-57.271-60.208-86.64-86.64-29.37-26.433-104.26-88.109-104.26-88.109s-85.172-29.37-105.73-26.433c-20.559 2.937-95.451-33.775-123.35 4.4054-27.901 38.18-60.208 66.082-74.892 82.235-14.685 16.153-39.649 51.397-44.054 76.361-4.4054 24.964-20.559 27.901-4.4054 58.739 16.153 30.838 503.69 93.983 536 64.613 32.307-29.37 114.54-89.577 123.35-92.514 8.8109-2.937 88.109-2.937 88.109-2.937s10.279-2.937 10.279-36.712 30.838-77.829 2.937-88.109c-27.901-10.279-116.01-32.307-146.85-2.937-30.838 29.37-41.117 23.496-55.802 45.523" fill="none" stroke="#000" stroke-width="1.0" />
<rect stroke="#000" fill="none" stroke-width="1" x="0" y="0" width="1189.0" height="841.0" /><path stroke="#000" stroke-width="1" d="M180.0 0 V841.0" /><path stroke="#000" stroke-width="1" d="M360.0 0 V841.0" /><path stroke="#000" stroke-width="1" d="M540.0 0 V841.0" /><path stroke="#000" stroke-width="1" d="M720.0 0 V841.0" /><path stroke="#000" stroke-width="1" d="M900.0 0 V841.0" /><path stroke="#000" stroke-width="1" d="M1080.0 0 V841.0" /><path stroke="#000" stroke-width="1" d="M0 250.0 H1189.0" /><path stroke="#000" stroke-width="1" d="M0 500.0 H1189.0" /><path stroke="#000" stroke-width="1" d="M0 750.0 H1189.0" /><g opacity="0.3"><text x="171.0" y="125.0" font-family="sans-serif" font-size="10" dominant-baseline="middle" text-anchor="end" stroke-width="0" stroke="#000" fill="#000">1a</text><text x="189.0" y="125.0" font-family="sans-serif" font-size="10" dominant-baseline="middle" text-anchor="start" stroke-width="0" stroke="#000" fill="#000">1a</text><path d="M173.0 125.0 L180.0 128.5 L187.0 125.0 L180.0 121.5 L173.0 125.0" stroke-width="0.5" stroke="#000" fill="#000">1a</path></g><g opacity="0.3"><text x="351.0" y="125.0" font-family="sans-serif" font-size="10" dominant-baseline="middle" text-anchor="end" stroke-width="0" stroke="#000" fill="#000">1b</text><text x="369.0" y="125.0" font-family="sans-serif" font-size="10" dominant-baseline="middle" text-anchor="start" stroke-width="0" stroke="#000" fill="#000">1b</text><path d="M353.0 125.0 L360.0 128.5 L367.0 125.0 L360.0 121.5 L353.0 125.0" stroke-width="0.5" stroke="#000" fill="#000">1b</path></g><g opacity="0.3"><text x="531.0" y="125.0" font-family="sans-serif" font-size="10" dominant-baseline="middle" text-anchor="end" stroke-width="0" stroke="#000" fill="#000">1c</text><text x="549.0" y="125.0" font-family="sans-serif" font-size="10" dominant-baseline="middle" text-anchor="start" stroke-width="0" stroke="#000" fill="#000">1c</text><path d="M533.0 125.0 L540.0 128.5 L547.0 125.0 L540.0 121.5 L533.0 125.0" stroke-width="0.5" stroke="#000" fill="#000">1c</path></g><g opacity="0.3"><text x="711.0" y="125.0" font-family="sans-serif" font-size="10" dominant-baseline="middle" text-anchor="end" stroke-width="0" stroke="#000" fill="#000">1d</text><text x="729.0" y="125.0" font-family="sans-serif" font-size="10" dominant-baseline="middle" text-anchor="start" stroke-width="0" stroke="#000" fill="#000">1d</text><path d="M713.0 125.0 L720.0 128.5 L727.0 125.0 L720.0 121.5 L713.0 125.0" stroke-width="0.5" stroke="#000" fill="#000">1d</path></g><g opacity="0.3"><text x="891.0" y="125.0" font-family="sans-serif" font-size="10" dominant-baseline="middle" text-anchor="end" stroke-width="0" stroke="#000" fill="#000">1e</text><text x="909.0" y="125.0" font-family="sans-serif" font-size="10" dominant-baseline="middle" text-anchor="start" stroke-width="0" stroke="#000" fill="#000">1e</text><path d="M893.0 125.0 L900.0 128.5 L907.0 125.0 L900.0 121.5 L893.0 125.0" stroke-width="0.5" stroke="#000" fill="#000">1e</path></g><g opacity="0.3"><text x="1071.0" y="125.0" font-family="sans-serif" font-size="10" dominant-baseline="middle" text-anchor="end" stroke-width="0" stroke="#000" fill="#000">1f</text><text x="1089.0" y="125.0" font-family="sans-serif" font-size="10" dominant-baseline="middle" text-anchor="start" stroke-width="0" stroke="#000" fill="#000">1f</text><path d="M1073.0 125.0 L1080.0 128.5 L1087.0 125.0 L1080.0 121.5 L1073.0 125.0" stroke-width="0.5" stroke="#000" fill="#000">1f</path></g><g opacity="0.3"><text x="171.0" y="375.0" font-family="sans-serif" font-size="10" dominant-baseline="middle" text-anchor="end" stroke-width="0" stroke="#000" fill="#000">3a</text><text x="189.0" y="375.0" font-family="sans-serif" font-size="10" dominant-baseline="middle" text-anchor="start" stroke-width="0" stroke="#000" fill="#000">3a</text><path d="M173.0 375.0 L180.0 378.5 L187.0 375.0 L180.0 371.5 L173.0 375.0" stroke-width="0.5" stroke="#000" fill="#000">3a</path></g><g opacity="0.3"><text x="351.0" y="375.0" font-family="sans-serif" font-size="10" dominant-baseline="middle" text-anchor="end" stroke-width="0" stroke="#000" fill="#000">3b</text><text x="369.0" y="375.0" font-family="sans-serif" font-size="10" dominant-baseline="middle" text-anchor="start" stroke-width="0" stroke="#000" fill="#000">3b</text><path d="M353.0 375.0 L360.0 378.5 L367.0 375.0 L360.0 371.5 L353.0 375.0" stroke-width="0.5" stroke="#000" fill="#000">3b</path></g><g opacity="0.3"><text x="531.0" y="375.0" font-family="sans-serif" font-size="10" dominant-baseline="middle" text-anchor="end" stroke-width="0" stroke="#000" fill="#000">3c</text><text x="549.0" y="375.0" font-family="sans-serif" font-size="10" dominant-baseline="middle" text-anchor="start" stroke-width="0" stroke="#000" fill="#000">3c</text><path d="M533.0 375.0 L540.0 378.5 L547.0 375.0 L540.0 371.5 L533.0 375.0" stroke-width="0.5" stroke="#000" fill="#000">3c</path></g><g opacity="0.3"><text x="711.0" y="375.0" font-family="sans-serif" font-size="10" dominant-baseline="middle" text-anchor="end" stroke-width="0" stroke="#000" fill="#000">3d</text><text x="729.0" y="375.0" font-family="sans-serif" font-size="10" dominant-baseline="middle" text-anchor="start" stroke-width="0" stroke="#000" fill="#000">3d</text><path d="M713.0 375.0 L720.0 378.5 L727.0 375.0 L720.0 371.5 L713.0 375.0" stroke-width="0.5" stroke="#000" fill="#000">3d</path></g><g opacity="0.3"><text x="891.0" y="375.0" font-family="sans-serif" font-size="10" dominant-baseline="middle" text-anchor="end" stroke-width="0" stroke="#000" fill="#000">3e</text><text x="909.0" y="375.0" font-family="sans-serif" font-size="10" dominant-baseline="middle" text-anchor="start" stroke-width="0" stroke="#000" fill="#000">3e</text><path d="M893.0 375.0 L900.0 378.5 L907.0 375.0 L900.0 371.5 L893.0 375.0" stroke-width="0.5" stroke="#000" fill="#000">3e</path></g><g opacity="0.3"><text x="1071.0" y="375.0" font-family="sans-serif" font-size="10" dominant-baseline="middle" text-anchor="end" stroke-width="0" stroke="#000" fill="#000">3f</text><text x="1089.0" y="375.0" font-family="sans-serif" font-size="10" dominant-baseline="middle" text-anchor="start" stroke-width="0" stroke="#000" fill="#000">3f</text><path d="M1073.0 375.0 L1080.0 378.5 L1087.0 375.0 L1080.0 371.5 L1073.0 375.0" stroke-width="0.5" stroke="#000" fill="#000">3f</path></g><g opacity="0.3"><text x="171.0" y="625.0" font-family="sans-serif" font-size="10" dominant-baseline="middle" text-anchor="end" stroke-width="0" stroke="#000" fill="#000">5a</text><text x="189.0" y="625.0" font-family="sans-serif" font-size="10" dominant-baseline="middle" text-anchor="start" stroke-width="0" stroke="#000" fill="#000">5a</text><path d="M173.0 625.0 L180.0 628.5 L187.0 625.0 L180.0 621.5 L173.0 625.0" stroke-width="0.5" stroke="#000" fill="#000">5a</path></g><g opacity="0.3"><text x="351.0" y="625.0" font-family="sans-serif" font-size="10" dominant-baseline="middle" text-anchor="end" stroke-width="0" stroke="#000" fill="#000">5b</text><text x="369.0" y="625.0" font-family="sans-serif" font-size="10" dominant-baseline="middle" text-anchor="start" stroke-width="0" stroke="#000" fill="#000">5b</text><path d="M353.0 625.0 L360.0 628.5 L367.0 625.0 L360.0 621.5 L353.0 625.0" stroke-width="0.5" stroke="#000" fill="#000">5b</path></g><g opacity="0.3"><text x="531.0" y="625.0" font-family="sans-serif" font-size="10" dominant-baseline="middle" text-anchor="end" stroke-width="0" stroke="#000" fill="#000">5c</text><text x="549.0" y="625.0" font-family="sans-serif" font-size="10" dominant-baseline="middle" text-anchor="start" stroke-width="0" stroke="#000" fill="#000">5c</text><path d="M533.0 625.0 L540.0 628.5 L547.0 625.0 L540.0 621.5 L533.0 625.0" stroke-width="0.5" stroke="#000" fill="#000">5c</path></g><g opacity="0.3"><text x="711.0" y="625.0" font-family="sans-serif" font-size="10" dominant-baseline="middle" text-anchor="end" stroke-width="0" stroke="#000" fill="#000">5d</text><text x="729.0" y="625.0" font-family="sans-serif" font-size="10" dominant-baseline="middle" text-anchor="start" stroke-width="0" stroke="#000" fill="#000">5d</text><path d="M713.0 625.0 L720.0 628.5 L727.0 625.0 L720.0 621.5 L713.0 625.0" stroke-width="0.5" stroke="#000" fill="#000">5d</path></g><g opacity="0.3"><text x="891.0" y="625.0" font-family="sans-serif" font-size="10" dominant-baseline="middle" text-anchor="end" stroke-width="0" stroke="#000" fill="#000">5e</text><text x="909.0" y="625.0" font-family="sans-serif" font-size="10" dominant-baseline="middle" text-anchor="start" stroke-width="0" stroke="#000" fill="#000">5e</text><path d="M893.0 625.0 L900.0 628.5 L907.0 625.0 L900.0 621.5 L893.0 625.0" stroke-width="0.5" stroke="#000" fill="#000">5e</path></g><g opacity="0.3"><text x="1071.0" y="625.0" font-family="sans-serif" font-size="10" dominant-baseline="middle" text-anchor="end" stroke-width="0" stroke="#000" fill="#000">5f</text><text x="1089.0" y="625.0" font-family="sans-serif" font-size="10" dominant-baseline="middle" text-anchor="start" stroke-width="0" stroke="#000" fill="#000">5f</text><path d="M1073.0 625.0 L1080.0 628.5 L1087.0 625.0 L1080.0 621.5 L1073.0 625.0" stroke-width="0.5" stroke="#000" fill="#000">5f</path></g><g opacity="0.3"><text x="171.0" y="795.5" font-family="sans-serif" font-size="10" dominant-baseline="middle" text-anchor="end" stroke-width="0" stroke="#000" fill="#000">7a</text><text x="189.0" y="795.5" font-family="sans-serif" font-size="10" dominant-baseline="middle" text-anchor="start" stroke-width="0" stroke="#000" fill="#000">7a</text><path d="M173.0 795.5 L180.0 799.0 L187.0 795.5 L180.0 792.0 L173.0 795.5" stroke-width="0.5" stroke="#000" fill="#000">7a</path></g><g opacity="0.3"><text x="351.0" y="795.5" font-family="sans-serif" font-size="10" dominant-baseline="middle" text-anchor="end" stroke-width="0" stroke="#000" fill="#000">7b</text><text x="369.0" y="795.5" font-family="sans-serif" font-size="10" dominant-baseline="middle" text-anchor="start" stroke-width="0" stroke="#000" fill="#000">7b</text><path d="M353.0 795.5 L360.0 799.0 L367.0 795.5 L360.0 792.0 L353.0 795.5" stroke-width="0.5" stroke="#000" fill="#000">7b</path></g><g opacity="0.3"><text x="531.0" y="795.5" font-family="sans-serif" font-size="10" dominant-baseline="middle" text-anchor="end" stroke-width="0" stroke="#000" fill="#000">7c</text><text x="549.0" y="795.5" font-family="sans-serif" font-size="10" dominant-baseline="middle" text-anchor="start" stroke-width="0" stroke="#000" fill="#000">7c</text><path d="M533.0 795.5 L540.0 799.0 L547.0 795.5 L540.0 792.0 L533.0 795.5" stroke-width="0.5" stroke="#000" fill="#000">7c</path></g><g opacity="0.3"><text x="711.0" y="795.5" font-family="sans-serif" font-size="10" dominant-baseline="middle" text-anchor="end" stroke-width="0" stroke="#000" fill="#000">7d</text><text x="729.0" y="795.5" font-family="sans-serif" font-size="10" dominant-baseline="middle" text-anchor="start" stroke-width="0" stroke="#000" fill="#000">7d</text><path d="M713.0 795.5 L720.0 799.0 L727.0 795.5 L720.0 792.0 L713.0 795.5" stroke-width="0.5" stroke="#000" fill="#000">7d</path></g><g opacity="0.3"><text x="891.0" y="795.5" font-family="sans-serif" font-size="10" dominant-baseline="middle" text-anchor="end" stroke-width="0" stroke="#000" fill="#000">7e</text><text x="909.0" y="795.5" font-family="sans-serif" font-size="10" dominant-baseline="middle" text-anchor="start" stroke-width="0" stroke="#000" fill="#000">7e</text><path d="M893.0 795.5 L900.0 799.0 L907.0 795.5 L900.0 792.0 L893.0 795.5" stroke-width="0.5" stroke="#000" fill="#000">7e</path></g><g opacity="0.3"><text x="1071.0" y="795.5" font-family="sans-serif" font-size="10" dominant-baseline="middle" text-anchor="end" stroke-width="0" stroke="#000" fill="#000">7f</text><text x="1089.0" y="795.5" font-family="sans-serif" font-size="10" dominant-baseline="middle" text-anchor="start" stroke-width="0" stroke="#000" fill="#000">7f</text><path d="M1073.0 795.5 L1080.0 799.0 L1087.0 795.5 L1080.0 792.0 L1073.0 795.5" stroke-width="0.5" stroke="#000" fill="#000">7f</path></g><g opacity="0.3"><text x="90.0" y="238.0" font-family="sans-serif" font-size="10" dominant-baseline="middle" text-anchor="middle" stroke-width="0" stroke="#000" fill="#000">2a</text><text x="90.0" y="264.0" font-family="sans-serif" font-size="10" dominant-baseline="middle" text-anchor="middle" stroke-width="0" stroke="#000" fill="#000">2a</text><path d="M90.0 243.0 L93.5 250.0 L90.0 257.0 L86.5 250.0 L90.0 243.0" stroke-width="0.5" stroke="#000" fill="#000">2a</path></g><g opacity="0.3"><text x="270.0" y="238.0" font-family="sans-serif" font-size="10" dominant-baseline="middle" text-anchor="middle" stroke-width="0" stroke="#000" fill="#000">2b</text><text x="270.0" y="264.0" font-family="sans-serif" font-size="10" dominant-baseline="middle" text-anchor="middle" stroke-width="0" stroke="#000" fill="#000">2b</text><path d="M270.0 243.0 L273.5 250.0 L270.0 257.0 L266.5 250.0 L270.0 243.0" stroke-width="0.5" stroke="#000" fill="#000">2b</path></g><g opacity="0.3"><text x="450.0" y="238.0" font-family="sans-serif" font-size="10" dominant-baseline="middle" text-anchor="middle" stroke-width="0" stroke="#000" fill="#000">2c</text><text x="450.0" y="264.0" font-family="sans-serif" font-size="10" dominant-baseline="middle" text-anchor="middle" stroke-width="0" stroke="#000" fill="#000">2c</text><path d="M450.0 243.0 L453.5 250.0 L450.0 257.0 L446.5 250.0 L450.0 243.0" stroke-width="0.5" stroke="#000" fill="#000">2c</path></g><g opacity="0.3"><text x="630.0" y="238.0" font-family="sans-serif" font-size="10" dominant-baseline="middle" text-anchor="middle" stroke-width="0" stroke="#000" fill="#000">2d</text><text x="630.0" y="264.0" font-family="sans-serif" font-size="10" dominant-baseline="middle" text-anchor="middle" stroke-width="0" stroke="#000" fill="#000">2d</text><path d="M630.0 243.0 L633.5 250.0 L630.0 257.0 L626.5 250.0 L630.0 243.0" stroke-width="0.5" stroke="#000" fill="#000">2d</path></g><g opacity="0.3"><text x="810.0" y="238.0" font-family="sans-serif" font-size="10" dominant-baseline="middle" text-anchor="middle" stroke-width="0" stroke="#000" fill="#000">2e</text><text x="810.0" y="264.0" font-family="sans-serif" font-size="10" dominant-baseline="middle" text-anchor="middle" stroke-width="0" stroke="#000" fill="#000">2e</text><path d="M810.0 243.0 L813.5 250.0 L810.0 257.0 L806.5 250.0 L810.0 243.0" stroke-width="0.5" stroke="#000" fill="#000">2e</path></g><g opacity="0.3"><text x="990.0" y="238.0" font-family="sans-serif" font-size="10" dominant-baseline="middle" text-anchor="middle" stroke-width="0" stroke="#000" fill="#000">2f</text><text x="990.0" y="264.0" font-family="sans-serif" font-size="10" dominant-baseline="middle" text-anchor="middle" stroke-width="0" stroke="#000" fill="#000">2f</text><path d="M990.0 243.0 L993.5 250.0 L990.0 257.0 L986.5 250.0 L990.0 243.0" stroke-width="0.5" stroke="#000" fill="#000">2f</path></g><g opacity="0.3"><text x="1134.5" y="238.0" font-family="sans-serif" font-size="10" dominant-baseline="middle" text-anchor="middle" stroke-width="0" stroke="#000" fill="#000">2g</text><text x="1134.5" y="264.0" font-family="sans-serif" font-size="10" dominant-baseline="middle" text-anchor="middle" stroke-width="0" stroke="#000" fill="#000">2g</text><path d="M1134.5 243.0 L1138.0 250.0 L1134.5 257.0 L1131.0 250.0 L1134.5 243.0" stroke-width="0.5" stroke="#000" fill="#000">2g</path></g><g opacity="0.3"><text x="90.0" y="488.0" font-family="sans-serif" font-size="10" dominant-baseline="middle" text-anchor="middle" stroke-width="0" stroke="#000" fill="#000">4a</text><text x="90.0" y="514.0" font-family="sans-serif" font-size="10" dominant-baseline="middle" text-anchor="middle" stroke-width="0" stroke="#000" fill="#000">4a</text><path d="M90.0 493.0 L93.5 500.0 L90.0 507.0 L86.5 500.0 L90.0 493.0" stroke-width="0.5" stroke="#000" fill="#000">4a</path></g><g opacity="0.3"><text x="270.0" y="488.0" font-family="sans-serif" font-size="10" dominant-baseline="middle" text-anchor="middle" stroke-width="0" stroke="#000" fill="#000">4b</text><text x="270.0" y="514.0" font-family="sans-serif" font-size="10" dominant-baseline="middle" text-anchor="middle" stroke-width="0" stroke="#000" fill="#000">4b</text><path d="M270.0 493.0 L273.5 500.0 L270.0 507.0 L266.5 500.0 L270.0 493.0" stroke-width="0.5" stroke="#000" fill="#000">4b</path></g><g opacity="0.3"><text x="450.0" y="488.0" font-family="sans-serif" font-size="10" dominant-baseline="middle" text-anchor="middle" stroke-width="0" stroke="#000" fill="#000">4c</text><text x="450.0" y="514.0" font-family="sans-serif" font-size="10" dominant-baseline="middle" text-anchor="middle" stroke-width="0" stroke="#000" fill="#000">4c</text><path d="M450.0 493.0 L453.5 500.0 L450.0 507.0 L446.5 500.0 L450.0 493.0" stroke-width="0.5" stroke="#000" fill="#000">4c</path></g><g opacity="0.3"><text x="630.0" y="488.0" font-family="sans-serif" font-size="10" dominant-baseline="middle" text-anchor="middle" stroke-width="0" stroke="#000" fill="#000">4d</text><text x="630.0" y="514.0" font-family="sans-serif" font-size="10" dominant-baseline="middle" text-anchor="middle" stroke-width="0" stroke="#000" fill="#000">4d</text><path d="M630.0 493.0 L633.5 500.0 L630.0 507.0 L626.5 500.0 L630.0 493.0" stroke-width="0.5" stroke="#000" fill="#000">4d</path></g><g opacity="0.3"><text x="810.0" y="488.0" font-family="sans-serif" font-size="10" dominant-baseline="middle" text-anchor="middle" stroke-width="0" stroke="#000" fill="#000">4e</text><text x="810.0" y="514.0" font-family="sans-serif" font-size="10" dominant-baseline="middle" text-anchor="middle" stroke-width="0" stroke="#000" fill="#000">4e</text><path d="M810.0 493.0 L813.5 500.0 L810.0 507.0 L806.5 500.0 L810.0 493.0" stroke-width="0.5" stroke="#000" fill="#000">4e</path></g><g opacity="0.3"><text x="990.0" y="488.0" font-family="sans-serif" font-size="10" dominant-baseline="middle" text-anchor="middle" stroke-width="0" stroke="#000" fill="#000">4f</text><text x="990.0" y="514.0" font-family="sans-serif" font-size="10" dominant-baseline="middle" text-anchor="middle" stroke-width="0" stroke="#000" fill="#000">4f</text><path d="M990.0 493.0 L993.5 500.0 L990.0 507.0 L986.5 500.0 L990.0 493.0" stroke-width="0.5" stroke="#000" fill="#000">4f</path></g><g opacity="0.3"><text x="1134.5" y="488.0" font-family="sans-serif" font-size="10" dominant-baseline="middle" text-anchor="middle" stroke-width="0" stroke="#000" fill="#000">4g</text><text x="1134.5" y="514.0" font-family="sans-serif" font-size="10" dominant-baseline="middle" text-anchor="middle" stroke-width="0" stroke="#000" fill="#000">4g</text><path d="M1134.5 493.0 L1138.0 500.0 L1134.5 507.0 L1131.0 500.0 L1134.5 493.0" stroke-width="0.5" stroke="#000" fill="#000">4g</path></g><g opacity="0.3"><text x="90.0" y="738.0" font-family="sans-serif" font-size="10" dominant-baseline="middle" text-anchor="middle" stroke-width="0" stroke="#000" fill="#000">6a</text><text x="90.0" y="764.0" font-family="sans-serif" font-size="10" dominant-baseline="middle" text-anchor="middle" stroke-width="0" stroke="#000" fill="#000">6a</text><path d="M90.0 743.0 L93.5 750.0 L90.0 757.0 L86.5 750.0 L90.0 743.0" stroke-width="0.5" stroke="#000" fill="#000">6a</path></g><g opacity="0.3"><text x="270.0" y="738.0" font-family="sans-serif" font-size="10" dominant-baseline="middle" text-anchor="middle" stroke-width="0" stroke="#000" fill="#000">6b</text><text x="270.0" y="764.0" font-family="sans-serif" font-size="10" dominant-baseline="middle" text-anchor="middle" stroke-width="0" stroke="#000" fill="#000">6b</text><path d="M270.0 743.0 L273.5 750.0 L270.0 757.0 L266.5 750.0 L270.0 743.0" stroke-width="0.5" stroke="#000" fill="#000">6b</path></g><g opacity="0.3"><text x="450.0" y="738.0" font-family="sans-serif" font-size="10" dominant-baseline="middle" text-anchor="middle" stroke-width="0" stroke="#000" fill="#000">6c</text><text x="450.0" y="764.0" font-family="sans-serif" font-size="10" dominant-baseline="middle" text-anchor="middle" stroke-width="0" stroke="#000" fill="#000">6c</text><path d="M450.0 743.0 L453.5 750.0 L450.0 757.0 L446.5 750.0 L450.0 743.0" stroke-width="0.5" stroke="#000" fill="#000">6c</path></g><g opacity="0.3"><text x="630.0" y="738.0" font-family="sans-serif" font-size="10" dominant-baseline="middle" text-anchor="middle" stroke-width="0" stroke="#000" fill="#000">6d</text><text x="630.0" y="764.0" font-family="sans-serif" font-size="10" dominant-baseline="middle" text-anchor="middle" stroke-width="0" stroke="#000" fill="#000">6d</text><path d="M630.0 743.0 L633.5 750.0 L630.0 757.0 L626.5 750.0 L630.0 743.0" stroke-width="0.5" stroke="#000" fill="#000">6d</path></g><g opacity="0.3"><text x="810.0" y="738.0" font-family="sans-serif" font-size="10" dominant-baseline="middle" text-anchor="middle" stroke-width="0" stroke="#000" fill="#000">6e</text><text x="810.0" y="764.0" font-family="sans-serif" font-size="10" dominant-baseline="middle" text-anchor="middle" stroke-width="0" stroke="#000" fill="#000">6e</text><path d="M810.0 743.0 L813.5 750.0 L810.0 757.0 L806.5 750.0 L810.0 743.0" stroke-width="0.5" stroke="#000" fill="#000">6e</path></g><g opacity="0.3"><text x="990.0" y="738.0" font-family="sans-serif" font-size="10" dominant-baseline="middle" text-anchor="middle" stroke-width="0" stroke="#000" fill="#000">6f</text><text x="990.0" y="764.0" font-family="sans-serif" font-size="10" dominant-baseline="middle" text-anchor="middle" stroke-width="0" stroke="#000" fill="#000">6f</text><path d="M990.0 743.0 L993.5 750.0 L990.0 757.0 L986.5 750.0 L990.0 743.0" stroke-width="0.5" stroke="#000" fill="#000">6f</path></g><g opacity="0.3"><text x="1134.5" y="738.0" font-family="sans-serif" font-size="10" dominant-baseline="middle" text-anchor="middle" stroke-width="0" stroke="#000" fill="#000">6g</text><text x="1134.5" y="764.0" font-family="sans-serif" font-size="10" dominant-baseline="middle" text-anchor="middle" stroke-width="0" stroke="#000" fill="#000">6g</text><path d="M1134.5 743.0 L1138.0 750.0 L1134.5 757.0 L1131.0 750.0 L1134.5 743.0" stroke-width="0.5" stroke="#000" fill="#000">6g</path></g></svg>